<svg width="48" height="48" viewBox="0 0 48 48" fill="none" xmlns="http://www.w3.org/2000/svg">
<path d="M24 45.4995C22.6 45.4995 21.18 44.9594 20.12 43.8994L16.7 40.5195C15.84 39.6795 14.72 39.2195 13.52 39.2195H12C7.86 39.2195 4.5 35.8795 4.5 31.7795V9.95947C4.5 5.85947 7.86 2.51953 12 2.51953H36C40.14 2.51953 43.5 5.85947 43.5 9.95947V31.7795C43.5 35.8795 40.14 39.2195 36 39.2195H34.48C33.28 39.2195 32.14 39.6795 31.3 40.5195L27.88 43.8994C26.82 44.9594 25.4 45.4995 24 45.4995ZM12 5.49951C9.52 5.49951 7.5 7.49945 7.5 9.93945V31.7595C7.5 34.2195 9.52 36.1995 12 36.1995H13.52C15.52 36.1995 17.4 36.9794 18.82 38.3794L22.24 41.7595C23.22 42.7195 24.8 42.7195 25.78 41.7595L29.2 38.3794C30.62 36.9794 32.5 36.1995 34.5 36.1995H36C38.48 36.1995 40.5 34.1995 40.5 31.7595V9.93945C40.5 7.47945 38.48 5.49951 36 5.49951H12Z" fill="#194BF0"/>
<path d="M20.7605 29.022H15.4005C14.5205 29.022 13.7005 28.6018 13.1805 27.8818C12.6805 27.2018 12.5604 26.362 12.8004 25.562C13.5004 23.422 15.2204 22.2619 16.7404 21.2219C18.3404 20.1419 19.2404 19.462 19.2404 18.302C19.2404 17.262 18.4004 16.4219 17.3604 16.4219C16.3204 16.4219 15.4805 17.262 15.4805 18.302C15.4805 19.122 14.8005 19.802 13.9805 19.802C13.1605 19.802 12.4805 19.122 12.4805 18.302C12.4805 15.622 14.6604 13.4219 17.3604 13.4219C20.0604 13.4219 22.2404 15.602 22.2404 18.302C22.2404 21.122 20.1205 22.5619 18.4205 23.7219C17.3605 24.4419 16.3604 25.122 15.8604 26.022H20.7404C21.5604 26.022 22.2404 26.702 22.2404 27.522C22.2404 28.342 21.5805 29.022 20.7605 29.022Z" fill="#194BF0"/>
<path d="M32.0817 29.0179C31.2617 29.0179 30.5817 28.3379 30.5817 27.5179V26.1378H26.6617C26.6617 26.1378 26.6617 26.1378 26.6417 26.1378C25.6617 26.1378 24.7617 25.6179 24.2617 24.7779C23.7617 23.9179 23.7617 22.8579 24.2617 22.0179C25.6217 19.6779 27.2017 17.0179 28.6417 14.6979C29.2817 13.6779 30.5017 13.218 31.6417 13.538C32.7817 13.878 33.5817 14.918 33.5617 16.118V23.1578H34.0017C34.8217 23.1578 35.5017 23.8378 35.5017 24.6578C35.5017 25.4778 34.8217 26.1578 34.0017 26.1578H33.5817V27.538C33.5817 28.358 32.9217 29.0179 32.0817 29.0179ZM30.5817 17.2779C29.4017 19.1979 28.1817 21.2578 27.0817 23.1378H30.5817V17.2779Z" fill="#194BF0"/>
</svg>
