<svg width="16" height="16" viewBox="0 0 16 16" fill="none" xmlns="http://www.w3.org/2000/svg">
<path d="M5.11133 14.0088H5.1123C5.30651 14.1025 5.50589 14.1869 5.70996 14.2617C5.9142 14.3366 6.12296 14.4021 6.33594 14.457C5.90984 14.3472 5.50015 14.1964 5.11133 14.0088ZM11.1748 13.8613C10.8915 14.0154 10.5962 14.1504 10.29 14.2627V14.2617C10.3918 14.2244 10.4924 14.1847 10.5918 14.1426C10.7913 14.0581 10.9858 13.9641 11.1748 13.8613ZM2.65918 11.9873C2.97945 12.4153 3.34992 12.8036 3.76172 13.1436C3.4321 12.8715 3.12853 12.5689 2.85645 12.2393L2.65918 11.9873ZM13.5264 11.7256C13.1066 12.3465 12.5855 12.8935 11.9863 13.3418L11.7246 13.5273C12.3452 13.1077 12.8916 12.5862 13.3398 11.9873L13.5264 11.7256ZM1.85742 10.5928C1.98417 10.892 2.13246 11.18 2.2998 11.4551L2.47266 11.7256C2.2328 11.3707 2.02629 10.9916 1.85742 10.5928ZM14.1416 10.5928V10.5938V10.5928ZM14.2607 5.71094C14.3356 5.91518 14.4012 6.12392 14.4561 6.33691C14.4011 6.12394 14.3357 5.91517 14.2607 5.71094ZM2.13867 4.8252C2.80652 3.59699 3.84922 2.60135 5.1123 1.99219C4.7237 2.17968 4.35607 2.40395 4.01367 2.66016C3.49997 3.04448 3.0435 3.50094 2.65918 4.01465C2.53124 4.18563 2.41117 4.36283 2.2998 4.5459L2.13867 4.8252ZM11.9863 2.66016C12.4998 3.04434 12.9566 3.50023 13.3408 4.01367L13.3398 4.01465C13.2759 3.92918 13.2105 3.84493 13.1426 3.7627C12.8706 3.43328 12.5677 3.13037 12.2383 2.8584L11.9863 2.66016ZM10.5918 1.8584C10.8909 1.98504 11.1791 2.1326 11.4541 2.2998L11.7246 2.47363C11.3698 2.23374 10.9906 2.02731 10.5918 1.8584Z" fill="#0C0C0C" stroke="#0C0C0C"/>
<mask id="path-2-inside-1_37898_6258" fill="white">
<path d="M10.333 8.5H6.33301C6.05967 8.5 5.83301 8.27333 5.83301 8C5.83301 7.72667 6.05967 7.5 6.33301 7.5H10.333C10.6063 7.5 10.833 7.72667 10.833 8C10.833 8.27333 10.6063 8.5 10.333 8.5Z"/>
</mask>
<path d="M10.333 8.5H6.33301C6.05967 8.5 5.83301 8.27333 5.83301 8C5.83301 7.72667 6.05967 7.5 6.33301 7.5H10.333C10.6063 7.5 10.833 7.72667 10.833 8C10.833 8.27333 10.6063 8.5 10.333 8.5Z" fill="#0C0C0C"/>
<path d="M10.333 7.5H6.33301V9.5H10.333V7.5ZM6.33301 7.5C6.61196 7.5 6.83301 7.72105 6.83301 8H4.83301C4.83301 8.82562 5.50739 9.5 6.33301 9.5V7.5ZM6.83301 8C6.83301 8.27895 6.61196 8.5 6.33301 8.5V6.5C5.50739 6.5 4.83301 7.17438 4.83301 8H6.83301ZM6.33301 8.5H10.333V6.5H6.33301V8.5ZM10.333 8.5C10.0541 8.5 9.83301 8.27895 9.83301 8H11.833C11.833 7.17438 11.1586 6.5 10.333 6.5V8.5ZM9.83301 8C9.83301 7.72105 10.0541 7.5 10.333 7.5V9.5C11.1586 9.5 11.833 8.82562 11.833 8H9.83301Z" fill="#0C0C0C" mask="url(#path-2-inside-1_37898_6258)"/>
<mask id="path-4-inside-2_37898_6258" fill="white">
<path d="M7.6663 10.5003C7.53964 10.5003 7.41297 10.4536 7.31297 10.3536L5.31297 8.35362C5.11964 8.16029 5.11964 7.84029 5.31297 7.64695L7.31297 5.64695C7.5063 5.45362 7.8263 5.45362 8.01964 5.64695C8.21297 5.84029 8.21297 6.16029 8.01964 6.35362L6.37297 8.00029L8.01964 9.64695C8.21297 9.84029 8.21297 10.1603 8.01964 10.3536C7.91964 10.4536 7.79297 10.5003 7.6663 10.5003Z"/>
</mask>
<path d="M7.6663 10.5003C7.53964 10.5003 7.41297 10.4536 7.31297 10.3536L5.31297 8.35362C5.11964 8.16029 5.11964 7.84029 5.31297 7.64695L7.31297 5.64695C7.5063 5.45362 7.8263 5.45362 8.01964 5.64695C8.21297 5.84029 8.21297 6.16029 8.01964 6.35362L6.37297 8.00029L8.01964 9.64695C8.21297 9.84029 8.21297 10.1603 8.01964 10.3536C7.91964 10.4536 7.79297 10.5003 7.6663 10.5003Z" fill="#0C0C0C"/>
<path d="M7.31297 10.3536L8.02008 9.64651V9.64651L7.31297 10.3536ZM5.31297 8.35362L4.60586 9.06073L4.60586 9.06073L5.31297 8.35362ZM5.31297 7.64695L4.60586 6.93985L4.60586 6.93985L5.31297 7.64695ZM7.31297 5.64695L8.02008 6.35406V6.35406L7.31297 5.64695ZM8.01964 6.35362L7.31253 5.64651V5.64651L8.01964 6.35362ZM6.37297 8.00029L5.66586 7.29318L4.95876 8.00029L5.66586 8.70739L6.37297 8.00029ZM8.01964 9.64695L7.31253 10.3541V10.3541L8.01964 9.64695ZM7.6663 9.50029C7.79054 9.50029 7.92266 9.54909 8.02008 9.64651L6.60586 11.0607C6.90328 11.3581 7.28873 11.5003 7.6663 11.5003V9.50029ZM8.02008 9.64651L6.02008 7.64651L4.60586 9.06073L6.60586 11.0607L8.02008 9.64651ZM6.02008 7.64651C6.21727 7.8437 6.21727 8.15687 6.02008 8.35406L4.60586 6.93985C4.022 7.5237 4.022 8.47687 4.60586 9.06073L6.02008 7.64651ZM6.02008 8.35406L8.02008 6.35406L6.60586 4.93985L4.60586 6.93985L6.02008 8.35406ZM8.02008 6.35406C7.82289 6.55125 7.50972 6.55125 7.31253 6.35406L8.72674 4.93985C8.14288 4.35599 7.18972 4.35599 6.60586 4.93985L8.02008 6.35406ZM7.31253 6.35406C7.11534 6.15687 7.11534 5.8437 7.31253 5.64651L8.72674 7.06073C9.3106 6.47687 9.3106 5.5237 8.72674 4.93985L7.31253 6.35406ZM7.31253 5.64651L5.66586 7.29318L7.08008 8.70739L8.72674 7.06073L7.31253 5.64651ZM5.66586 8.70739L7.31253 10.3541L8.72674 8.93985L7.08008 7.29318L5.66586 8.70739ZM7.31253 10.3541C7.11534 10.1569 7.11534 9.8437 7.31253 9.64651L8.72674 11.0607C9.3106 10.4769 9.3106 9.5237 8.72674 8.93985L7.31253 10.3541ZM7.31253 9.64651C7.40995 9.54909 7.54206 9.50029 7.6663 9.50029V11.5003C8.04388 11.5003 8.42932 11.3581 8.72674 11.0607L7.31253 9.64651Z" fill="#0C0C0C" mask="url(#path-4-inside-2_37898_6258)"/>
</svg>
