<svg width="48" height="48" viewBox="0 0 48 48" fill="none" xmlns="http://www.w3.org/2000/svg">
<path d="M24.0007 26.6017C23.7407 26.6017 23.4807 26.5417 23.2407 26.4017L5.58068 16.1818C4.86068 15.7618 4.62064 14.8417 5.04064 14.1217C5.46064 13.4017 6.36064 13.1617 7.10064 13.5817L24.0007 23.3617L40.8007 13.6417C41.5207 13.2217 42.4407 13.4818 42.8606 14.1818C43.2806 14.9018 43.0207 15.8217 42.3207 16.2417L24.7807 26.4017C24.5207 26.5217 24.2607 26.6017 24.0007 26.6017Z" fill="#194BF0"/>
<path d="M24 44.7201C23.18 44.7201 22.5 44.0401 22.5 43.2201V25.0801C22.5 24.2601 23.18 23.5801 24 23.5801C24.82 23.5801 25.5 24.2601 25.5 25.0801V43.2201C25.5 44.0401 24.82 44.7201 24 44.7201Z" fill="#194BF0"/>
<path d="M24.0012 45.5C22.2412 45.5 20.5012 45.12 19.1212 44.36L8.44122 38.42C5.54122 36.82 3.28125 32.96 3.28125 29.64V18.34C3.28125 15.02 5.54122 11.18 8.44122 9.56004L19.1212 3.64C21.8612 2.12 26.1412 2.12 28.8812 3.64L39.5612 9.57994C42.4612 11.1799 44.7212 15.04 44.7212 18.36V29.66C44.7212 32.98 42.4612 36.8199 39.5612 38.4399L28.8812 44.36C27.5012 45.12 25.7612 45.5 24.0012 45.5ZM24.0012 5.49999C22.7412 5.49999 21.5012 5.75999 20.5812 6.25999L9.90125 12.1999C7.98125 13.2799 6.28125 16.14 6.28125 18.36V29.66C6.28125 31.86 7.98125 34.7399 9.90125 35.8199L20.5812 41.76C22.4012 42.78 25.6012 42.78 27.4212 41.76L38.1012 35.8199C40.0212 34.7399 41.7212 31.88 41.7212 29.66V18.36C41.7212 16.16 40.0212 13.2799 38.1012 12.1999L27.4212 6.25999C26.5012 5.75999 25.2612 5.49999 24.0012 5.49999Z" fill="#194BF0"/>
<path d="M34.0023 27.9791C33.1823 27.9791 32.5023 27.2991 32.5023 26.4791V20.0392L14.2623 9.51916C13.5423 9.09916 13.3023 8.17912 13.7223 7.47912C14.1423 6.75912 15.0423 6.51908 15.7623 6.93908L34.7423 17.8992C35.2023 18.1592 35.5023 18.6591 35.5023 19.1991V26.5192C35.5023 27.2992 34.8223 27.9791 34.0023 27.9791Z" fill="#194BF0"/>
</svg>
