<svg width="48" height="48" viewBox="0 0 48 48" fill="none" xmlns="http://www.w3.org/2000/svg">
<path d="M4 24.2207H38C38.5439 24.2207 39 24.6768 39 25.2207C39 25.7646 38.5439 26.2207 38 26.2207H4C3.45614 26.2207 3 25.7646 3 25.2207C3 24.6768 3.45614 24.2207 4 24.2207Z" fill="#494949" stroke="#494949"/>
<path d="M11.5605 12.0996H30.4404C33.8474 12.0997 35.9328 12.6485 37.1904 13.8926C38.4465 15.1352 39 17.1939 39 20.5596V34.8594C38.9597 38.0983 38.3901 40.0759 37.1377 41.2705C35.8792 42.4709 33.8087 42.9999 30.4404 43H11.5605C8.15343 43 6.06728 42.451 4.80957 41.207C3.55358 39.9644 3.00005 37.9054 3 34.54V20.5596C3 17.8806 3.31044 15.8825 4.29199 14.5078C5.24772 13.1694 6.92288 12.3155 9.93848 12.1387L9.93945 12.1396C10.4597 12.1196 10.9914 12.0996 11.5605 12.0996ZM11.5605 14.0996C11.0088 14.0996 10.4988 14.1196 10.0381 14.1396L10.0293 14.1406C8.25558 14.2496 6.89837 14.4911 6.05273 15.5107C5.63396 16.0158 5.37477 16.6702 5.21777 17.4873C5.06112 18.3028 5 19.3133 5 20.5596V34.54C5.00001 35.8258 5.0521 36.8797 5.22266 37.7295C5.3944 38.585 5.69448 39.2763 6.22168 39.7959C6.74813 40.3146 7.44821 40.6099 8.31543 40.7793C9.17794 40.9477 10.2498 41 11.5605 41H30.4404C31.736 41 32.7944 40.9499 33.6475 40.79C34.5042 40.6295 35.1982 40.3503 35.7246 39.8574C36.2538 39.3619 36.5601 38.7001 36.7412 37.8818C36.8758 37.2736 36.9458 36.5571 36.9785 35.7217L37 34.8457V20.5596C37 19.2737 36.9479 18.2199 36.7773 17.3701C36.6056 16.5145 36.3055 15.8233 35.7783 15.3037C35.2519 14.7849 34.5519 14.4897 33.6846 14.3203C32.8222 14.1519 31.751 14.0996 30.4404 14.0996H11.5605Z" fill="#494949" stroke="#494949"/>
<path d="M17.5605 5H36.4404C39.8474 5.00005 41.9328 5.54891 43.1904 6.79297C44.4465 8.03561 45 10.0943 45 13.46V27.4404C45 30.1193 44.6895 32.1176 43.708 33.4922C42.7525 34.8302 41.0777 35.6833 38.0635 35.8604H38C37.7345 35.8604 37.4881 35.7604 37.334 35.6064L37.3271 35.6006L37.3213 35.5947L37.25 35.5205C37.0922 35.3396 37.0001 35.1037 37 34.8604V20.5596C37 19.2738 36.9479 18.2199 36.7773 17.3701C36.6056 16.5146 36.3055 15.8233 35.7783 15.3037C35.2519 14.785 34.5518 14.4897 33.6846 14.3203C32.8222 14.1519 31.751 14.0996 30.4404 14.0996H11.5605C11.0088 14.0996 10.4988 14.1206 10.0381 14.1406H10.0352C9.78332 14.1532 9.51184 14.0515 9.30078 13.8545C9.11286 13.679 9.0015 13.4183 9 13.126C9.03967 9.89413 9.60942 7.92047 10.8623 6.72754C12.1209 5.52929 14.192 5 17.5605 5ZM17.5605 7C16.4141 7 15.4553 7.03824 14.6621 7.15625C13.8693 7.27423 13.2061 7.47659 12.6729 7.82715C11.5662 8.55467 11.1934 9.79774 11.0615 11.5625L11.0215 12.0996H30.4404C33.8473 12.0997 35.9328 12.6487 37.1904 13.8926C38.4464 15.1352 39 17.1942 39 20.5596V33.7988L39.5889 33.6924C40.8308 33.4676 41.7533 33.0059 42.3125 31.9482C42.8362 30.9574 43 29.5074 43 27.4404V13.46C43 12.1741 42.9479 11.1203 42.7773 10.2705C42.6056 9.41492 42.3055 8.7237 41.7783 8.2041C41.2519 7.68527 40.5519 7.39009 39.6846 7.2207C38.8222 7.0523 37.751 7.00001 36.4404 7H17.5605Z" fill="#494949" stroke="#494949"/>
<path d="M10.4805 34.6191H13.9209C14.4646 34.6193 14.9209 35.0754 14.9209 35.6191C14.9209 36.1672 14.4802 36.6189 13.9209 36.6191H10.4805C9.93661 36.6191 9.48047 36.163 9.48047 35.6191C9.48047 35.0753 9.93661 34.6191 10.4805 34.6191Z" fill="#494949" stroke="#494949"/>
<path d="M18.2197 34.6191H25.0996C25.6435 34.6191 26.0996 35.0753 26.0996 35.6191C26.0996 36.1674 25.6591 36.6191 25.0996 36.6191H18.2197C17.6759 36.6191 17.2197 36.163 17.2197 35.6191C17.2197 35.0753 17.6759 34.6191 18.2197 34.6191Z" fill="#494949" stroke="#494949"/>
</svg>
