<svg width="18" height="18" viewBox="0 0 18 18" fill="none" xmlns="http://www.w3.org/2000/svg">
<path d="M9 17.0625C4.5525 17.0625 0.9375 13.4475 0.9375 9C0.9375 4.5525 4.5525 0.9375 9 0.9375C13.4475 0.9375 17.0625 4.5525 17.0625 9C17.0625 13.4475 13.4475 17.0625 9 17.0625ZM9 2.0625C5.175 2.0625 2.0625 5.175 2.0625 9C2.0625 12.825 5.175 15.9375 9 15.9375C12.825 15.9375 15.9375 12.825 15.9375 9C15.9375 5.175 12.825 2.0625 9 2.0625Z" fill="#757575"/>
<path d="M11.783 11.9478C11.6855 11.9478 11.588 11.9253 11.498 11.8653L9.17297 10.4778C8.59547 10.1328 8.16797 9.37531 8.16797 8.70781V5.63281C8.16797 5.32531 8.42297 5.07031 8.73047 5.07031C9.03797 5.07031 9.29297 5.32531 9.29297 5.63281V8.70781C9.29297 8.97781 9.51797 9.37531 9.75047 9.51031L12.0755 10.8978C12.3455 11.0553 12.428 11.4003 12.2705 11.6703C12.158 11.8503 11.9705 11.9478 11.783 11.9478Z" fill="#757575"/>
</svg>
