<svg width="18" height="18" viewBox="0 0 18 18" fill="none" xmlns="http://www.w3.org/2000/svg">
<path d="M9.00043 12.247C7.20793 12.247 5.75293 10.792 5.75293 8.99945C5.75293 7.20695 7.20793 5.75195 9.00043 5.75195C10.7929 5.75195 12.2479 7.20695 12.2479 8.99945C12.2479 10.792 10.7929 12.247 9.00043 12.247ZM9.00043 6.87695C7.83043 6.87695 6.87793 7.82945 6.87793 8.99945C6.87793 10.1695 7.83043 11.122 9.00043 11.122C10.1704 11.122 11.1229 10.1695 11.1229 8.99945C11.1229 7.82945 10.1704 6.87695 9.00043 6.87695Z" fill="#757575"/>
<path d="M8.99957 15.7644C6.17957 15.7644 3.51707 14.1144 1.68707 11.2494C0.89207 10.0119 0.89207 7.99437 1.68707 6.74937C3.52457 3.88438 6.18707 2.23438 8.99957 2.23438C11.8121 2.23438 14.4746 3.88438 16.3046 6.74937C17.0996 7.98688 17.0996 10.0044 16.3046 11.2494C14.4746 14.1144 11.8121 15.7644 8.99957 15.7644ZM8.99957 3.35938C6.57707 3.35938 4.25957 4.81438 2.63957 7.35688C2.07707 8.23438 2.07707 9.76437 2.63957 10.6419C4.25957 13.1844 6.57707 14.6394 8.99957 14.6394C11.4221 14.6394 13.7396 13.1844 15.3596 10.6419C15.9221 9.76437 15.9221 8.23438 15.3596 7.35688C13.7396 4.81438 11.4221 3.35938 8.99957 3.35938Z" fill="#757575"/>
</svg>
