<svg width="24" height="24" viewBox="0 0 24 24" fill="none" xmlns="http://www.w3.org/2000/svg">
<path d="M8 11.75H16C16.1339 11.75 16.25 11.8661 16.25 12C16.25 12.1339 16.1339 12.25 16 12.25H8C7.86614 12.25 7.75 12.1339 7.75 12C7.75 11.8661 7.86614 11.75 8 11.75Z" fill="#194BF0" stroke="#194BF0"/>
<path d="M9 1.75H15C17.6576 1.75 19.435 2.31976 20.5576 3.44238C21.6802 4.565 22.25 6.3424 22.25 9V15C22.25 17.6576 21.6802 19.435 20.5576 20.5576C19.435 21.6802 17.6576 22.25 15 22.25H9C6.3424 22.25 4.565 21.6802 3.44238 20.5576C2.31976 19.435 1.75 17.6576 1.75 15V9C1.75 6.3424 2.31976 4.565 3.44238 3.44238C4.565 2.31976 6.3424 1.75 9 1.75ZM9 2.25C6.65972 2.25 4.92459 2.66134 3.79297 3.79297C2.66134 4.92459 2.25 6.65972 2.25 9V15C2.25 17.3403 2.66134 19.0754 3.79297 20.207C4.92459 21.3387 6.65972 21.75 9 21.75H15C17.3403 21.75 19.0754 21.3387 20.207 20.207C21.3387 19.0754 21.75 17.3403 21.75 15V9C21.75 6.65972 21.3387 4.92459 20.207 3.79297C19.0754 2.66134 17.3403 2.25 15 2.25H9Z" fill="#194BF0" stroke="#194BF0"/>
</svg>
