<svg width="48" height="48" viewBox="0 0 48 48" fill="none" xmlns="http://www.w3.org/2000/svg">
<path d="M29 33.5H19C18.18 33.5 17.5 32.82 17.5 32C17.5 31.18 18.18 30.5 19 30.5H29C29.82 30.5 30.5 31.18 30.5 32C30.5 32.82 29.82 33.5 29 33.5Z" fill="#194BF0"/>
<path d="M10.4004 20.9198C10.0204 20.9198 9.64037 20.7598 9.34037 20.4798C8.92037 20.0598 8.78037 19.3998 9.02037 18.8398L12.7404 9.95975C12.8204 9.77975 12.8604 9.65975 12.9204 9.55975C15.8804 2.73975 19.6604 1.07975 26.3404 3.63975C26.7204 3.77975 27.0204 4.07975 27.1804 4.45975C27.3404 4.83975 27.3404 5.25975 27.1804 5.63975L21.3204 19.2398C21.0804 19.7798 20.5404 20.1398 19.9404 20.1398H14.2404C13.1004 20.1398 12.0204 20.3598 10.9804 20.7998C10.8004 20.8798 10.6004 20.9198 10.4004 20.9198ZM21.2204 5.49975C18.7404 5.49975 17.2204 7.11975 15.6404 10.7998C15.6204 10.8598 15.5804 10.9198 15.5604 10.9798L12.9404 17.1998C13.3804 17.1598 13.8004 17.1398 14.2404 17.1398H18.9404L23.7604 5.93975C22.8204 5.63975 21.9804 5.49975 21.2204 5.49975Z" fill="#194BF0"/>
<path d="M36.5805 20.5391C36.4405 20.5391 36.2805 20.5191 36.1405 20.4791C35.4005 20.2591 34.5805 20.1391 33.7405 20.1391H19.9405C19.4405 20.1391 18.9605 19.8791 18.6805 19.4591C18.4205 19.0391 18.3605 18.4991 18.5605 18.0391L24.3605 4.57907C24.6605 3.85907 25.5205 3.37907 26.2805 3.61907C26.5205 3.69907 26.7405 3.79907 26.9805 3.89907L31.7005 5.87907C34.4605 7.01907 36.3005 8.21907 37.5005 9.65907C37.7405 9.93907 37.9405 10.2391 38.1205 10.5391C38.3405 10.8791 38.5405 11.2991 38.6805 11.7191C38.7405 11.8591 38.8405 12.1191 38.9005 12.3991C39.4605 14.2791 39.1805 16.6191 37.9805 19.6191C37.7405 20.1791 37.1805 20.5391 36.5805 20.5391ZM22.2205 17.1391H33.7605C34.4005 17.1391 35.0205 17.1991 35.6405 17.2991C36.2005 15.5591 36.3205 14.2191 36.0005 13.1391C35.9605 12.9591 35.9205 12.8791 35.9005 12.7991C35.7805 12.4791 35.7005 12.2991 35.6005 12.1391C35.4605 11.9191 35.3605 11.7391 35.2005 11.5591C34.3405 10.5191 32.8205 9.55907 30.5605 8.63907L26.6005 6.97907L22.2205 17.1391Z" fill="#194BF0"/>
<path d="M31.8 45.5006H16.2C15.64 45.5006 15.12 45.4606 14.6 45.4006C7.58 44.9206 3.58 40.9206 3.1 33.8206C3.04 33.3806 3 32.8406 3 32.3006V28.4006C3 23.9006 5.68 19.8406 9.82 18.0406C11.22 17.4406 12.72 17.1406 14.26 17.1406H33.78C34.92 17.1406 36.02 17.3006 37.04 17.6206C41.74 19.0406 45.04 23.4806 45.04 28.4006V32.3006C45.04 32.7406 45.02 33.1606 45 33.5606C44.56 41.3806 40 45.5006 31.8 45.5006ZM14.24 20.1406C13.1 20.1406 12.02 20.3606 10.98 20.8006C7.94 22.1206 5.98 25.1006 5.98 28.4006V32.3006C5.98 32.7206 6.02 33.1406 6.06 33.5406C6.44 39.2406 9.24 42.0406 14.86 42.4206C15.36 42.4806 15.76 42.5206 16.18 42.5206H31.78C38.38 42.5206 41.62 39.6206 41.94 33.4206C41.96 33.0606 41.98 32.7006 41.98 32.3006V28.4006C41.98 24.7806 39.56 21.5406 36.12 20.4806C35.38 20.2606 34.56 20.1406 33.72 20.1406H14.24Z" fill="#194BF0"/>
<path d="M4.48047 29.8996C3.66047 29.8996 2.98047 29.2196 2.98047 28.3996V22.5396C2.98047 16.2396 7.44047 10.7996 13.6005 9.5996C14.1405 9.4996 14.7005 9.6996 15.0605 10.1196C15.4005 10.5396 15.5005 11.1396 15.2805 11.6396L11.7805 19.9996C11.6205 20.3596 11.3405 20.6396 11.0005 20.7996C7.96047 22.1196 6.00047 25.0996 6.00047 28.3996C5.98047 29.2196 5.32047 29.8996 4.48047 29.8996ZM11.2005 13.6396C8.64047 15.0796 6.78047 17.5996 6.20047 20.5396C7.08047 19.6396 8.10047 18.8796 9.26047 18.3196L11.2005 13.6396Z" fill="#194BF0"/>
<path d="M43.5203 29.8996C42.7003 29.8996 42.0203 29.2196 42.0203 28.3996C42.0203 24.7796 39.6003 21.5396 36.1603 20.4796C35.7603 20.3596 35.4203 20.0796 35.2403 19.6996C35.0603 19.3196 35.0403 18.8796 35.2003 18.4996C36.1403 16.1596 36.3803 14.4596 36.0003 13.1396C35.9603 12.9596 35.9203 12.8796 35.9003 12.7996C35.6403 12.2196 35.7803 11.5396 36.2403 11.0996C36.7003 10.6596 37.4003 10.5596 37.9603 10.8596C42.3203 13.1396 45.0203 17.6196 45.0203 22.5396V28.3996C45.0203 29.2196 44.3403 29.8996 43.5203 29.8996ZM38.5003 18.1796C39.7603 18.7596 40.8803 19.5796 41.8203 20.5596C41.4403 18.5996 40.5003 16.8196 39.1203 15.4196C39.0203 16.2596 38.8203 17.1796 38.5003 18.1796Z" fill="#194BF0"/>
</svg>
